<mxfile host="65bd71144e">
    <diagram id="HIP3nbAZw_EuaXWnEj3U" name="Page-1">
        <mxGraphModel dx="911" dy="645" grid="1" gridSize="10" guides="1" tooltips="1" connect="1" arrows="1" fold="1" page="1" pageScale="1" pageWidth="850" pageHeight="1100" math="0" shadow="0">
            <root>
                <mxCell id="0"/>
                <mxCell id="1" parent="0"/>
                <mxCell id="7" value="http://ics2o.mths.ca" style="swimlane;whiteSpace=wrap;html=1;" parent="1" vertex="1">
                    <mxGeometry x="40" y="40" width="760" height="480" as="geometry"/>
                </mxCell>
                <mxCell id="24" value="Volume is: x mmÂ³" style="text;html=1;align=center;verticalAlign=middle;resizable=0;points=[];autosize=1;strokeColor=none;fillColor=none;fontSize=25;" vertex="1" parent="7">
                    <mxGeometry x="10" y="430" width="220" height="40" as="geometry"/>
                </mxCell>
                <mxCell id="25" value="" style="shape=image;verticalLabelPosition=bottom;labelBackgroundColor=default;verticalAlign=top;aspect=fixed;imageAspect=0;image=data:image/png,iVBORw0KGgoAAAANSUhEUgAAAZQAAAD/CAIAAABZ47faAAAAAXNSR0IArs4c6QAAAARnQU1BAACxjwv8YQUAAAAJcEhZcwAADsMAAA7DAcdvqGQAACJeSURBVHhe7V0trF5F10Xw8pM0lEIICCCYJrgiK5pAgoAE0yowJJAKriShSZtUoJpKEE0qKypwIJGVmCakilThikRUIPkW73zZ7HfOc58z/7NnZl1123vO/Kw9Z521Z9aZeeZv/hABIkAEBkTgmQHbzCYTASJABP4meXEQEAEiMCQCJK8hw8ZGEwEiQPLiGKiFwO+///7LL7/UKp3lLo8AyWv5IVAHgJ9++un5559/5pln8EudGljq6giQvFYfATX6/+jRo3PnzoG58HPhwoW//vqrRi0sc3EESF6LD4Dy3f/hhx8cbcnP22+/jRSyfE0scW0ESF5rx79073/++ef//Oc/Hnnhn2fPnsWfStfG8pZGgOS1dPjLdv7XX3996aWXhLk+/fTTl19+WRPZt99+W7ZGlrYyAiSvlaNfsu9IDN944w2hqtdee+3PP//87rvvPBX28ccf4/9LVsyyVkWA5LVq5Iv2+48//njnnXc0T0mS+N5773n8hSuh0YrWz8JWRIDktWLUy/YZSspjqC+++EKqgFXCkdezzz4rLPbCCy/cvXu3bDNY2moIkLxWi3jh/sIGgUxQayskj6AzaDGRV0JtmAXTqeXJyQldFIXjsVJxJK+Vol2hr5999pmXFbqE8euvv758+bKrUMQXBBcsYBcvXpRbwGt0UVQIyxJFkryWCHOlToKhPOZyCSNkF3gKf9qKL9ziqE1uxIokXRSVAjR3sSSvueNbsXe3b9/2mMsljJqbDoovUBuugZdVGynooqgYqkmLJnlNGtjK3bp3797WieoElMgud8Fp4gtX/vbbb++++66U88EHH9BFUTluUxVP8poqnG06A5JyWSF+3NfX+JEVRi+XPCi+hNEwYa9nzeCi4EYUbYI4QS0krwmC2LQLIBdhLvn6WhJGT3Z54gvayv2PMJprOrysUiZdFE3DOXJlJK+Ro9e87Uj0ZKIKHnrJ+GTGfTuFr6kKgktu8Xyq4ETtooCOo4uieXgHq5DkNVjAOjYXngax0eMbRiEvbUl1zcPsuyOp7TQ8NNdB8eUmy0Sa4Rq6KDrGeoiqSV5DhKl/I7WNHpndRx995DhIEkbdxCPkdUR8uRI8FwX3Muwfe6stIHlZjYyldiGDE00E5rpx48Y2YQwkL1x2RHy5QkBYdFFYir/RtpC8jAbGVLOEbsBZ33//vUxObRPG3bQRF+yKL1xDF4WpAWCzMSQvm3Ex1CowlOgsGFPF2XAwYQwhrxDxhWvoojA0CEw2heRlMixmGiWzV+AvZIt6i+cj3/QcmfNyPdPi67ixiy4KM2PBXENIXuZCYqdB2LVGNBf0F1YDdxPGQOWlxRdWFY93mS4KO0PCVEtIXqbCYagxshUE+Aub3ugk7kjCGE5eMF6IMXV3SZEuCkMjw0xTSF5mQmGpIQ8ePBBmgTICcwUmjOHkhSvFFbErvlyxdFFYGiP920Ly6h8Day3AhJQ4FeBKdTsLBiaMUeSlvyXaFV+uZLoorI2Wju0heXUE32LV2kYPwnI7BYasMOrO7E7Yy8Wx4gs30kVhcdz0aBPJqwfqVuuEyJI9aiC+3OeHUQljlPLCxQniC3fRRWF1BDVtF8mrKdyWKwMjyGbzmPCSzbmiEsZY8sL1CeLL1UIXheXh1KBtJK8GIA9QhXeOhsxAxSaMCeSVJr5cRXRRDDC2qjWR5FUN2qEK1jZ6OZQsIWFMIC8tvrA+ELsTztZFgUmxobBnYxMRIHklAjfTbfpDa9nEJnaFUQMSPmHv7kJdsr6JZDABW90FFBW4dplQEW+xgwDJy04s+rQEZKFt9NKItIQxTXnhLmkGpthixZer1HNRgM76AMpaWyFA8mqFtMl6dGIIG720MTlhTCYvEJasDKSJL1SNhFGf3c0TPUwOumKNInkVg3K4gvQ5GjgIVvROTsKYTF5FxBcK8VwUIESe6DHcyAxsMMkrEKjZLtM2eqgVfeZYTsKYQ15FxJdrANYceKLHbEN20x+S1/QhPtBB+Ob1B0DORu9+MhPGHPIqJb5cGzwXBRg5bSptxfExSJ9JXoMEqlwzkRXKORqgMG0syE8YM8mroPhCSyAnvRM96KIoN476l0Ty6h+Dli3wztHw5oPyE8ZM8iorvlxj6KJoOcBa1kXyaol257o8G723FWqRhDGfvLT4wpdDRSCji6IIjNYKIXlZi0jF9oiwgrHr3r17uqZSCWM+eaEEoVFMuqNhRRChi6IIjKYKIXmZCkfFxuid/LZnwZZKGIuQFwoRu1Yp8YUy6aKoOLx6FE3y6oF68zr1ORonJyde/QUTxlLkJZtQFxRfrm10UTQffbUqJHnVQtZOucgQ5QMgKCyvYWUTxlLkVUl8uebRRWFncOa0hOSVg94A92JWXpjLnaPhNbpswliQvOqJLzSSLooBxu5eE0leewiN/HdIDH2OhrbRu24VTxgLkldV8eXaSRfFyKP7b5LX0OE71nisr2kb/XbZrkbCWJa8qoov11S6KMZ9AEhe48buWMv1ORqgMP0BkNxWI2EsS15afGG7xEqhoouiErC1iyV51Ua4Q/mejd6do+H9VEoYi5OXPvv2YEeK4EsXRREYGxdC8moMePXq8BzKB31yjoZXa72EsTh5ocDLly+7NQf8UhU+z0WRvK1Y1UaycEGA5DXbYMCSoiwvejb6BgljDfKC4JIe1RNfruVY4pCv1lEp96Kw/HiQvCxHJ7pt+hyN04RD1YSxBnm1FF+oy3NR4CBL7kURPRCb3EDyagJzk0q0jf60HdxrJ4yVyKul+PK6AP3FEz2ajN/oSkhe0ZDZvAHzNQfP0fBaW2+FUVcUe3pQCKTNZr6kMZ6LouBXliH95TW7CJC8diEa4AK9JHfQRu/60CBhrKS8UGx78YVKYTHxTvQotcvFAKPKfBNJXuZDtNfABw8eaBv9aZsdt0kY65EXSm4vvlAp8NQziTzRY288tvs7yasd1jVq0udoYJls+wGQVNomYaxKXlp8NT5Wli6KGqM3s0ySVyaAPW/XNnow10EbfeOEsSp5oXARQcjmGkNPF0VjwHerI3ntQmT0AogsfY7GEQNUy4SxNnmhL5IjNxZf6BpdFKYeBpKXqXCENgYTMTKRjIcZ015H7myZMNYmL5QvW8K2F19e7+iiCB2vda4jedXBtWap3jkaxwVIsxVG3eMaVgkpv6/4cs2gi6LmAA8tm+QVipSd6/TiFyaSjzSsfcLYQHlZEF9oA10U3Z8Iklf3EMQ1QO+ftz1HwyurfcLYhrwsiC/0lC6KuLFb+mqSV2lEa5aHzxVDbPSuCV0SxjbkZUR8uc7SRVFzyB8rm+TVC/noejUZwUZ//P5eCWMz8tLiC8hEo1n0BrooisIZWhjJKxSpvtfhHA2xCGC7rtNs9NLIXgljM/LS4guu911AaoePLoraCG/LJ3m1xzy6Rni4jp+j4ZXYMWFsSV4gLNCWy6ONbByoN/bgXhTRAz3yBpJXJGDNL8eqlj5H44iN3jWtb8LYkrxQl0wCWhBfru90UTR7REhezaBOqQhMpG30Ibvi9U0YG5OXQfEFBDwXxcWLF7kXRcro37uH5LWHUL+/e+doYFZ4ty3dE8bG5GVTfKFVYNWTkxNZGuZeFLtDN+ECklcCaC1u8Wz0mLDfrdVCwtievGyKL4eDdlHYmZjbHUijXEDyMhopyf4w6E87R8NruoWEsT15mRVfDgostngnehzZtsjoWLTaLJKXxcjojGPXRu86YCRh7EJelsUXAAFb6SOdeKJHqUeO5FUKyWLl6OX2wH3T7SSMXchLiy+szNqcHfdcFN2NtcXGa7+CSF79sD9UMzJEmeVFGhjYODsJYy/ygviS7CyQ8QOxLXgZJi7F9YIom21nwS5XLYrkVRXeuMIxuIW5jpyj4RVqKmHsRV6oV04hgaHXpvhCI+miiHskjl5N8ioIZlZRcEJE2ehdZdYSxo7khaplg0bLooYuiqznRN1M8iqFZFY5cJ9qG324cLCWMPYlryHEl4OILoqsB+a/N5O88jHMLUGfowEK2/0ASOozmDD2Ja9RxJdDiS6KzCeH5JUJYO7tno3+yDkaXk02E8bu5DWQ+AJWdFHkPD8krxz0cu/F9Ac+fHOT9JjwCrHRS5U2E8bu5DWW+PLgcid60EUR+FyRvAKBqnKZ9i5GDVmzCaMF8tLiKzwHrxLg4ELpogiG6t8LSV4JoJW5RZ+jEbUdleWE0QJ5afF1+fLlMtGqXwpdFLEYk7xiEStzvfZb40yNqEItJ4xGyAu+E3HMhU8jRkWhxsV0UUShSvKKgqvMxVgmDz9Hw6vSeMJohLzQDGguB/JA4suhRxdF4GNG8goEqthlMiOD5yrcRu+qt58w2iEvCK4RxZcDkC6KkOeN5BWCUrFrHjx4oG30scdG2E8Y7ZDX0OILjaeLYvepI3ntQlTsArxOxUaPfVFi93UaImE0RV5Diy8PSWemiVqSLjZwrRZE8moUGawlyVE32P8gdgl/lITRFHmNLr4cmFDr3l4UsYK90RBvXg3JqwXkEFn6HI2E9a9REkZr5DWB+AKkeNWJmRkSjCd6uGFG8qpOXnhPym4HUP54kcZWOVDCGEJeT548uXLlyrVr12JxSLtelh1xWG9aCRbu2rooEgaShY4UbAPJqyCYB4ryztHAUmNsfWMljCHkdevWLciH8+fPg8Vi0Ui4Xh/Zm4B/Qo31bsFelbLgwxM9SF71Rto/JWsbPfw7CZWNlTCGkxeevYcPHyYAknALtvdytglI4ITbTd3iuSigK2NXfkx1J6cxJK8c9HbuhXVerEaB52h4JQ6XMIaQ1/379x0szRIfqFcRLKOLLyAMtpJcGDAue6IHyasWed2+fTvZRu/aNGLCGEJeEFwOGeSPtdDflDuT+PJAXtZFQfKq8vjoczSSP08ZMWGMIq87d+5UQf9QoZOJL9fFxV0UJK/yjw+2N5EkBStcaa6cQRPGKPJqNuflWjWf+EKnVnZRkLwKk5de28L0cNpk6rgJYwh5QXC5tLExeU0pvgD4si4KkldJ8sJrUJ+jEWujl6aMmzCGkJezSrQnr1nFl8N8QRcFyasYeeHFrm30OBAoreihE8Y08nr8+DEYzf1UNX9p8RW1AWRaKBvftZqLguRVZoB552hgM7y0ckdPGBPI6+rVq7Is68yr4LI09ELukm0g8alp2nRkSC29rlnKRUHyKjDMPBt91DkaXvWjJ4yx5OUxl2MxfDxUICqnFIFgyRfy84kvD/+5XRQkrwKPiXYMYuohucQJEsYo8gJJiea6dOmSEBnEVzKGITeCs1y9U4ovh8AKLgqSV8hoP3bNycmJPIEwpiYXN0fCGEVeDjdQlVjt8bW2+8+qmeMK4guBmN5FQfJKZpt/btTnaMBGlFPWHAljAnnpj4Twe5uFyBXEF2Ixt4uC5JVOONpGD+pJL+jvv6dJGGPJC6mixk2+HKptAVtEfDlsPRdFTn6QM8iL30vySoQUs/KSLcaeo+FVOVPCGEVe211xmpEX2rmI+HIRgYsC32/LiJ1jLwqSVwp5wQmhz9FIs9FLxTMljFHk5cku3NuSvLT4StvzI2Xo9Ltn66JI2NG3X/MP1Ezyig4H3KfaRg/dFF2EumGyhDGKvLa5oZAXts3JQTXwXhFfeBVlxjGwxu6X6c1ORj/Rg+QVN5ywgiM2eiy0J38A5GqdL2EsRV7NdsuRHboz11vihlHXqz0XBZbLBzXrkrwixhGEt0wcQHzlq+75EsbhyEvOAF5HfLm35gQnepC8QskLbyeJNwZ6jo3eVTllwphJXrB3uUnl7XRYaJzir1tQfAEkz0WBl3GzjW3jQ3T4DpJXKJJYUpTFmvyzP2dNGDPJC7djCRI4w3AfGpjs69YUX/IG1Sd6jOWiIHkFjX19jkaRD+JmTRhLkVftL4S8qK8pvhwI47ooSF775KVt9DhTY/+GvSsmThhDyAuqyn0VdBCn43/dgzbx7yuLL0A2qIuC5LUz3HFemWSL0F+JD4e6be6EMYS83AeMpyWGbT5v3MZxZfHl0BjORUHyOkZH8kLGw5Zpo5dq5k4YQ8gL18DP9fTp04PQY84eoqzqrjgH69XiK38dOf8l16WEsVwUJK9TB4k+RwPrjEW8MNMnjIHk1eXJ3K0Up6U4lZ184NNuFfYvGMhFQfI6PJzw7hUbPbxdmR8AuTpWSBiHJi8EXaYIlhVfiOAoLgqS1wHygm9eNtuEnz7TRr9Uwjg0eaHxsq/kyuLLBRFZgnEXBcnLJy+ILH2ORqk38CIJ4+jkRfGlnwfjLgqS1/+QFwSzrDrhtVPKc7xOwjg6eVF8eS9zyy4Kkte/wfLO0cDyU6np1RVWGDVW4owbcasZiq/tsLfpoiB5/RspbaOHvasUcy2VME6gvCi+Do58gy4Kktf/Rwo7oshKU0G9sFrCOAd5afGVfARnqZefnXK2LopSa1lpfSR5/YObVsXY3igNyoN3rZYwzkFeWnxhDrTgeBi9KEyt6Nd8370oSF7/HE+g9/YuOLwWTBinIS9oCjEKFJz9LDi6OhbluSgKZipRnVqdvLSNHgbrIjZ6F4A1E8ZpyAsdEYlB8bXlFGyG3v1Ej6XJC1MbBc/R8AK8ZsI4E3nh9UPxdUQKeS4KuCNLmSID9de65IW8QJ+jUXbqcdmEcSbyovgKIRE5xARzL+B6TMKE3FXkmkXJCy9VbaOHBi6CJhPGyciL4ivkuYCLQj6nA4U1O9FjRfKC3NU2+uJr4SsnjJORF8VXCHm5GV7vRI+yqczBZixHXpiSl51Pipyj4cG6eMI4H3lRfAXyV3sXxXLkJdsGQN8Wz89XXmHUQ3zoz4O2z6osO2KqoeB6dCApjHVZSxfFWuSFbFwsXTUOSmHCOJ/ycjmRrO0UOX5lLD6KbW0zF8VC5KXP0ahxPDITRhnlkykv9EvW1DAzTfG1S2dtXBSrkJe20UMf7aIfewETxonTRnQNhCULahRfgU9HbRfFEuQFG71ki6XO0fDix4RxbvKi+AokLO+yqi6K+ckLToh6NnoXKiaM3pCdL22k+EojLzdjWMlFMTl56XM0sFRU5BwNL4pMGLfDekryovhK5q9KLoqZyQs2ObHRY8KikmuOCeM65MWZr2T+cgmKPtEjfy+KackLIku+esc6d6VPRpkwHhzNsyoviq8c8sK9ZV0Uc5IX3pCSZtew0bsQMmE8bShPTF5afNUw3GSyg/3bC7oo5iQvLCnK8iLEUaWIMmFckLz0+gzei3iBVRpdcxfruSjSjoyYkLz0ORr1LDlMGI88XRMrL9dr+bCf4iuZZGEDyNyLYjby0jb6GzduJCN7/EYmjMfxmZ68sDG0k/YUXzmPmOeiwCshalVtKvLSWhT6KwfW4/cyYVycvCi+Cj5c3okesJQHFj4Peek8DnNegf1PuIwJ4y5o0ysvIEDxtTsMwi/AMyWfvkPPBrooJiEvfY4G1hnrfTrLhDFkRK5AXhRfISMh/BrPRQH9sWspn4G8tI0e3q7dPocDur2SCWMIeouQF8VXyGAIvwZPrjxf0F+7J3oMT16Y4ZM1C/Q2asIvHFZ3JRPGQMQWIS8tvqrOsQbCPsdl4S6KsckLVK3P0ahko3djgglj+LOxDnmJ+IJSqDr8wsGf4ErPRXHaob8DkxcmtvQ5Gth8o17YwJIXLlxwq+Nnzpy5fv06nk/+nIbA+++/77DCL9OjJF+h4ZfpO9usg998882bb77pRtGHH36IeqHIvLnsUckL3dA2+qoHsmM14NVXXxXLPn8hAkSgMQJ42LcfM4xKXnpir/g5GqLgILi0X79xwFgdESACsFCc9oAPSV7a1RZoCUnIKCG49OcLL774IuTrzZs3mynncStaKm1EmL766ithGfw+buD6tlyfj+PwhHQ4Yh4Yj7xw6o8MFPQ2gZV2b9kKroOqdbecZS9YZ8JeQixH6uGXZeOe03HIK+1ThW7YtdoPRl76HI1KowRVaMF1RLXmhGruexckLyw1yjuVy45RwxuTWXr+eldwSeEjkZe20ePU6+I2+i2IFFxRo1AuXpC80HeKr4TRkiC4xiMvvM2qnqORA2JCzOa+ZU3y0uKr6vL3HIMHfnJPcGEuO+rzmDGUF/op+XBxG32yap1jDNXoxZrkBSRlbRoOxBrATlMmZq71fvawyMGYGtu7AchLn6MBCiv7ARC2cIydJoyFeMHrlyUvvAjlmaT4Ojjy8QG2PgkNM1zYdy9tCsg6eUFGaht9wanQLYjH12UX5KDkLi9LXkBMfDwUX9vxU0RwjTHnBT7GxLxbxCl7jsYWxN112eQnecEbVyYviq/agmsM8pLlG5BXKRt9QdW6ICsFdnll8qL48gYJJAjGg57hQtqIxzBwLB25zG7aqO22EEr5XUUJZVVrkSZNWcji5EXxJaMa0/Dy4brLn0o9y6jCKHnJ6EeHixzQAhBl7szlocnThFPSTdlOLU5eFF9AAIILj5j+NrOU4DKdNmobPT7AznyutiCmrctmNmOp20leWnzVOznU7KCqKrjskhcmzoWt4WFLW0M9rlozyzQ7Yuw0jOSlxRe+NltnyG21Ap7iIjNc2+FtK23EhoLaRp8T8gaq1Q5ZWGsJycvlTfKRbL3Dj02FHspDdjaGBKn9XbAh8tLnaACCqA8FvBCCBOtNE5oaLjYbQ/JycZHt2KcXX102YrFCXtpGj0gn2+i3IBafJrTJF6ZaRfJy4VhEfHk739UWXLbmvMA4IpTQ82QbvQdi2XVZU+xgvDEkLwnQ3OKri+AyRF54O8m3Tsk2+r4gGqeS9s0jeQnmE4svfLypd74L2T6w7FDsnzbqbTHSFpV7qdaykZipNJKXjuZ84svIRiydyUsfb5GwIgMQ9SdEWODg9oF9SdALh3O9LP6J8mTiy87Odz3JSxtwE87R8EBsNk3Ylx2M16435BO/HjeHEfGFUbo9wst4TKV5RgRX/zkvfah37FHpWxBhxB93TIwydgPb6YmvxWWXLDuKAarI526BsSh4macVsMLWfSOWPsoLc1vaRh8FsR3VGtXsdS72xBdllws9cJDNncZ60cIf7+3XbOS74A7kpc/RwDpjuI1+u+k1tw+0yYkivii7dIBka4CBxJfljVhak5e20UN5htvoPRDbr8vapAmbrRLxRdmlAzSW+LK/811T8oJ0EmNI+Dka3K/ZJkMdbxXEF2XXFqJRxJdlwdVhwh4iS+Ysw230WxDx3eKID/NqbYb4ouzaBt2++PK0guXPVBopL+8cjRACsq9aV+Mj9rcIAmbFl9uIpcZ+zUVw2xbSgrwAil6t2F1h3W56ze0DK4WfxbZHQIuv5A0Iije7zfaBZZvdgrxgwhJjxO45Gh6I3K+5bLxZmgUERHxhZrB7e8bd+a46eckxdqCh4zZ67tfcfRyzAW0QwBtaXufJe6gUaaqnFTAZXfCAjCItPFJIXfICEBIknAZ0pB0jqtbasWH5EyMgVrhe4gvT0N4BGcN9F1yRvPQ5GkciNK5qnfjRYtdqI6C/Q2gvvubYiKUWeWkbPU69Ps1Gz+0Daz8kLN8sAl3EV6Wd765du3bp0qWHDx96aD9+/PjKlSv379/fRuHqf39yolOFvPAm0edoHLTRc7/mnLDx3gkQaC++KgkucJabHQJ/eXHB/+D/z58//+TJE/0n0Jm7JYe/ypMX/FmY9nMtgyv14DeoWxATNvOaYPiyC4sj0Ex8bbUCvgsu9X24kBdISgdU/h9UcOfOHf0ncJajiFu3biWPgcLkpc/RAIVtbSyVVGty/3kjEeiIQBvxhU1cqu7XfBp5IZeU9TpPYTlFhp8Qv/ppASpJXp6NfjsN6YHI7QM7Pjas2ggCIr4wNVy8Sc22D4TmcmSESS7phTDUNqN013tKLbb7xcgLU/JA33Vge47GFsTh1mVjkeX1RCAEAT1BXPZr0JY73wl5yZw9JrnkPz2egtpyRLGdIwtBTK4pRl56/0zPRs/9mqNCwotXQ0CM3KX24dhqBbgsw7efSsB/mwZikssxlIgsmbPHPJf7E/LKhLoKkxegkeRWO3QPqtZS04Q53ea9RMAOAngiZHU+X3xt92uGA7x2Z2V6SybgZZ1RWExEWZEJL/SogPKSc67AX3qLyJaqtXZsWD4RqIpAEfGFhX6ZunFiotl+zSKmZGLeCS6YvGQ6X3ityIRXAfK6e/euaC45R4PbB1Yd6Cx8PgTyxVff7QM9q5fYuNxiomMrx2tHTGGxYc1SXrK5B1qGCXhno+d+zbEx4PVEAAgkiy8LO99hkVFmuNAXCC49Se/Iy03PSxbpOb8SxkA6eYFTtY0ezEXBlRAA3kIEHAJp4svTCjjRpv2Xkq79kgw+ffrU/S7z8TL/hctkwkubKtLGQCJ56XM0YKPHQkZf1ZrWed5FBEwhECW+8AyCqmTSpvt+zcJQMv8l9OT89O4joVITXghcCnlpGz2cuz/++KMGseU0oamRx8YQgUwEtPg68sGczY1YZMFRJ4kOEEkVt/P6OYhFkxdEFjZldnx/9uzZL7/8Urgfv3C/5pxg8F4iIGv3kAUH92Ixu/OdWE8dIegpLT0j5v6a81WQDJI48gKaIrKee+65t956SzNXs3VZDnEiMCsCeMTkO0RPfG0FF4wRmGi2A4VY6rfbSJzmts9pfAR5eedoaNoCozUwwuX0k/cSgVEQAGe5h0uLr+1+zbvHQbTvr1tkxA9+8WqXhNETZTmNjCAv2Lg0Ybnfu08T5nSe9xIBgwh44gsTNfogCDx0Zr8LRnoIhbWVXQ5kN6Of+T2jjlcoeXnbXTvmguAypVoNDkQ2iQgkICDi69y5c6+//rqIBvsbsXibDnp93261mgBO3JyXQKmVFzQtJhf5QwSIQHEEbt68eebMGS/RMSu4cggo59595fXo0aNttsj/IQJEoBkCEAr5H2zn0ITNe3fIC/s1v/LKK82CxIqIABHwEPj888+r7mZjk5hCWnWMvDCf5fTwJ5988tFHH12/fr24PGaBRIAIHEEA6iHkMV7zmv20cU1c2GsiQASMI0DyMh4gNo8IEIHDCJC8ODKIABEYEgGS15BhY6OJABEgeXEMEAEiMCQCJK8hw8ZGEwEiQPLiGCACRGBIBEheQ4aNjSYCRIDkte4YwL4l2AAg8+DPdeFjz3sjQPLqHYFO9csJVOCvTk1gtUQgCwGSVxZ8495M8ho3dmy5Q4DktehIIHktGviJuk3ymiiYMV0hecWgxWstIkDyshiVBm0ieTUAmVVURYDkVRVeu4WTvOzGhi0LQ4DkFYbTdFeRvKYL6XIdInktF3LXYZLXooGfqNskr4mCGdMVIa+CR1HF1M9riUAuAiSvXAQHvZ/kNWjg2GxBgOS16GAgeS0a+Im6TfKaKJgxXSF5xaDFay0iQPKyGJUGbSJ5NQCZVVRFgORVFV67hZO87MaGLQtDgOQVhtN0V925c8cdbsrVxuliu0qHSF6rRNrr561bt0hei8Z+lm6TvGaJZGQ/SF6RgPFycwiQvMyFpE2DSF5tcGYt9RAgedXD1nTJQl7YDNp0Q9k4InAKAiSvRYeGkBd+WRQCdntwBEhegwcwtflXr151E/Ykr1QIeV9nBEhenQPQq3o4JEhevcBnvUUQIHkVgXG8Qkhe48WMLf5fBEhei44IkteigZ+o2ySviYIZ0xUsMrq08f79+zH38VoiYAUBkpeVSDRux+PHj8FfmLZvXC+rIwKlECB5lUKS5RABItAUAZJXU7hZGREgAqUQIHmVQpLlEAEi0BSB/wPUjCg1cdtvuAAAAABJRU5ErkJggg==;" vertex="1" parent="7">
                    <mxGeometry x="430" y="60" width="304" height="191.89" as="geometry"/>
                </mxCell>
                <mxCell id="10" value="Volume of a Pyramid" style="text;html=1;align=center;verticalAlign=middle;resizable=0;points=[];autosize=1;strokeColor=none;fillColor=none;fontSize=25;" vertex="1" parent="7">
                    <mxGeometry x="10" y="40" width="250" height="40" as="geometry"/>
                </mxCell>
                <mxCell id="12" value="Please enter integers for dimension:" style="text;html=1;align=center;verticalAlign=middle;resizable=0;points=[];autosize=1;strokeColor=none;fillColor=none;fontSize=25;" vertex="1" parent="7">
                    <mxGeometry y="190.33" width="430" height="40" as="geometry"/>
                </mxCell>
                <mxCell id="11" value="Formula&lt;br&gt;V = (L x W x H) / 3" style="text;html=1;align=center;verticalAlign=middle;resizable=0;points=[];autosize=1;strokeColor=none;fillColor=none;fontSize=25;" vertex="1" parent="1">
                    <mxGeometry x="55" y="131" width="230" height="70" as="geometry"/>
                </mxCell>
                <mxCell id="13" value="width:" style="text;html=1;align=center;verticalAlign=middle;resizable=0;points=[];autosize=1;strokeColor=none;fillColor=none;fontSize=25;" vertex="1" parent="1">
                    <mxGeometry x="130" y="320" width="90" height="40" as="geometry"/>
                </mxCell>
                <mxCell id="14" value="height:" style="text;html=1;align=center;verticalAlign=middle;resizable=0;points=[];autosize=1;strokeColor=none;fillColor=none;fontSize=25;" vertex="1" parent="1">
                    <mxGeometry x="125" y="358" width="100" height="40" as="geometry"/>
                </mxCell>
                <mxCell id="15" value="length:" style="text;html=1;align=center;verticalAlign=middle;resizable=0;points=[];autosize=1;strokeColor=none;fillColor=none;fontSize=25;" vertex="1" parent="1">
                    <mxGeometry x="125" y="280" width="100" height="40" as="geometry"/>
                </mxCell>
                <mxCell id="16" value="" style="rounded=1;whiteSpace=wrap;html=1;fontSize=25;" vertex="1" parent="1">
                    <mxGeometry x="225" y="288" width="120" height="30" as="geometry"/>
                </mxCell>
                <mxCell id="17" value="" style="rounded=1;whiteSpace=wrap;html=1;fontSize=25;" vertex="1" parent="1">
                    <mxGeometry x="225" y="325" width="120" height="30" as="geometry"/>
                </mxCell>
                <mxCell id="18" value="" style="rounded=1;whiteSpace=wrap;html=1;fontSize=25;" vertex="1" parent="1">
                    <mxGeometry x="225" y="363" width="120" height="30" as="geometry"/>
                </mxCell>
                <mxCell id="19" value="mm" style="text;html=1;align=center;verticalAlign=middle;resizable=0;points=[];autosize=1;strokeColor=none;fillColor=none;fontSize=25;" vertex="1" parent="1">
                    <mxGeometry x="345" y="283" width="70" height="40" as="geometry"/>
                </mxCell>
                <mxCell id="20" value="mm" style="text;html=1;align=center;verticalAlign=middle;resizable=0;points=[];autosize=1;strokeColor=none;fillColor=none;fontSize=25;" vertex="1" parent="1">
                    <mxGeometry x="345" y="323" width="70" height="40" as="geometry"/>
                </mxCell>
                <mxCell id="21" value="mm" style="text;html=1;align=center;verticalAlign=middle;resizable=0;points=[];autosize=1;strokeColor=none;fillColor=none;fontSize=25;" vertex="1" parent="1">
                    <mxGeometry x="345" y="355" width="70" height="40" as="geometry"/>
                </mxCell>
                <mxCell id="22" value="&lt;font style=&quot;font-size: 21px;&quot;&gt;Calculate Volume&lt;/font&gt;" style="rounded=1;whiteSpace=wrap;html=1;fontSize=25;" vertex="1" parent="1">
                    <mxGeometry x="60" y="410" width="145" height="50" as="geometry"/>
                </mxCell>
                <mxCell id="23" value="" style="shape=waypoint;sketch=0;size=6;pointerEvents=1;points=[];fillColor=none;resizable=0;rotatable=0;perimeter=centerPerimeter;snapToPoint=1;fontSize=25;" vertex="1" parent="1">
                    <mxGeometry x="440" y="260" width="20" height="20" as="geometry"/>
                </mxCell>
            </root>
        </mxGraphModel>
    </diagram>
</mxfile>